<svg width="12" height="13" fill="none" xmlns="http://www.w3.org/2000/svg"><path d="M11.466 10.05v.001a.516.516 0 01.01.178c-.002.026-.007.046-.008.05h0l-.012.05c-.08.308-.3.78-.87 1.265-.1.097-.24.203-.446.282a2.18 2.18 0 01-.782.124c-.662 0-1.332-.14-2.762-.926-1.196-.658-2.317-1.673-2.9-2.26-.611-.598-1.64-1.778-2.332-3.034C.76 4.684.5 3.751.5 3.064c0-.323.039-.578.126-.79a1.2 1.2 0 01.317-.446c.111-.104.354-.264.53-.378a34.562 34.562 0 01.428-.275m9.565 8.876L1.9 1.175m9.565 8.875a.498.498 0 00.012-.248l-.011-.05a1.223 1.223 0 00-.48-.717l-.005-.004-.006-.004a42.651 42.651 0 00-1.823-1.135 3.88 3.88 0 00-.105-.064 1.393 1.393 0 00-.366-.156c-.346-.087-.71-.006-1.075.275l-.02.015-.019.018a1.754 1.754 0 01-.287.203.988.988 0 01-.19.085.325.325 0 01-.063.014 1.9 1.9 0 01-.21-.121 6.908 6.908 0 01-.508-.377 10.83 10.83 0 01-.901-.808 17.777 17.777 0 01-.756-.825 5.55 5.55 0 01-.401-.523 1.343 1.343 0 01-.109-.196c.003-.118.023-.151.037-.176h0c.016-.027.04-.06.087-.122l.032-.04c.04-.052.093-.118.147-.192a.596.596 0 01.04-.048l.001-.002c.023-.027.057-.066.091-.111.07-.093.158-.227.21-.402.115-.385.015-.801-.309-1.238-.138-.204-.306-.457-.474-.71-.235-.354-.47-.708-.622-.927A1.041 1.041 0 002.526 1a1.14 1.14 0 00-.625.175m9.565 8.876L1.9 1.175m9.341 8.63l-.262.062.262-.062z" stroke="#B1B1C8"/></svg>